# xmcd CD database file
# Copyright (C) 1996 Ti Kan
#
# Track frame offsets:
# 	200
# 	18380
# 	34260
# 	48680
# 	63862
# 	78232
# 	100065
# 	115980
# 	130425
# 	145875
# 	162147
# 	175580
#
# Disc length: 2512 seconds
#
# Revision: 1
# Processed by: cddbd v1.4b41PL1 Copyright (c) Steve Scherf et al.
# Submitted via: DiscPlay 3.4.1
#
DISCID=9b09ce0c
DTITLE=The Osborne Brothers - When The Roses Bloom In Dixieland
DYEAR=1900
DGENRE=
TTITLE0=Sweet Sunny South
TTITLE1=Lorena
TTITLE2=Shiloh Hill
TTITLE3=Amazing Grace
TTITLE4=When The Roses Bloom In Dixieland
TTITLE5=Ashokan Farewell
TTITLE6=Damn Yankee Lad
TTITLE7=The Last Time
TTITLE8=The Waltz You Saved For Me
TTITLE9=Farther Along
TTITLE10=When I Swim The Golden River
TTITLE11=America The Beautiful
EXTD=
EXTT0=
EXTT1=
EXTT2=
EXTT3=
EXTT4=
EXTT5=
EXTT6=
EXTT7=
EXTT8=
EXTT9=
EXTT10=
EXTT11=
PLAYORDER=
